#!OML:ASF H:\Dans Jumps\Project 1\Capture day 1\Session 1\subject.ASF
:FULLY-SPECIFIED
:DEGREES
409
root 0.593204 17.6265 11.2157 17.0059 -0.0281117 -3.35154
lowerback 8.7054 0.939953 -1.22631
upperback 6.25179 1.1542 1.38959
thorax 1.54571 0.510174 2.03966
lowerneck -14.1276 0.726416 0.578556
upperneck 11.2008 1.09975 -1.67642
head 5.71097 0.430613 -0.525388
rclavicle 7.50412e-015 1.63997e-015
rhumerus -28.9364 -13.453 -78.4324
rradius 28.0537
rwrist 28.6078
rhand -24.686 -26.404
rfingers 7.12502
rthumb 1.81487 -56.376
lclavicle 7.50412e-015 1.63997e-015
lhumerus -29.5747 -0.74156 84.8537
lradius 26.3548
lwrist 22.1793
lhand -27.3387 -9.63877
lfingers 7.12502
lthumb -0.747205 20.3397
rfemur -26.7823 -1.32114 22.274
rtibia 26.2741
rfoot -14.6274 -1.04226
rtoes 9.06167
lfemur -26.8158 7.14584 -18.1684
ltibia 28.7932
lfoot -12.7778 6.37135
ltoes -9.09472
410
root 0.590337 17.6221 11.2176 16.9459 -0.0500737 -3.41183
lowerback 8.63126 0.946636 -1.15757
upperback 6.25546 1.16789 1.39099
thorax 1.59067 0.518654 2.00263
lowerneck -14.1729 0.73892 0.556068
upperneck 11.2117 1.12125 -1.67653
head 5.72209 0.439795 -0.519737
rclavicle -6.80837e-015 -2.98177e-015
rhumerus -28.6799 -13.3317 -78.5981
rradius 28.0739
rwrist 28.5603
rhand -24.6698 -26.4576
rfingers 7.12502
rthumb 1.83047 -56.4295
lclavicle -6.80837e-015 -2.98177e-015
lhumerus -29.4412 -0.782861 84.9688
lradius 26.4731
lwrist 22.1073
lhand -27.308 -9.60297
lfingers 7.12502
lthumb -0.717529 20.3756
rfemur -26.7146 -1.33523 22.3538
rtibia 26.2894
rfoot -14.6774 -0.999736
rtoes 9.06484
lfemur -26.7263 7.22582 -18.1006
ltibia 28.785
lfoot -12.8906 6.39099
ltoes -9.01806
411
root 0.587845 17.618 11.219 16.8868 -0.0756726 -3.46689
lowerback 8.56311 0.953611 -1.09499
upperback 6.25681 1.18144 1.39267
thorax 1.62988 0.526958 1.9693
lowerneck -14.2116 0.754228 0.529771
upperneck 11.2166 1.14699 -1.67478
head 5.73028 0.451069 -0.512511
rclavicle 5.91384e-015 -4.72114e-015
rhumerus -28.4349 -13.196 -78.7592
rradius 28.1112
rwrist 28.4944
rhand -24.6412 -26.4994
rfingers 7.12502
rthumb 1.85807 -56.4711
lclavicle 5.91384e-015 -4.72114e-015
lhumerus -29.3031 -0.834525 85.0955
lradius 26.5778
lwrist 22.0412
lhand -27.2784 -9.57069
lfingers 7.12502
lthumb -0.688999 20.4079
rfemur -26.6569 -1.35077 22.4261
rtibia 26.3162
rfoot -14.7218 -0.95361
rtoes 9.05955
lfemur -26.6396 7.29175 -18.0387
ltibia 28.7757
lfoot -12.9844 6.42817
ltoes -8.97989
412
root 0.585589 17.6142 11.2201 16.8266 -0.107867 -3.50741
lowerback 8.51055 0.962841 -1.05059
upperback 6.24462 1.19674 1.39375
thorax 1.64608 0.535893 1.94504
lowerneck -14.2295 0.765911 0.500305
upperneck 11.2234 1.16869 -1.67397
head 5.7355 0.460262 -0.505473
rclavicle 4.42296e-015 9.54166e-015
rhumerus -28.2239 -13.0479 -78.9074
rradius 28.1663
rwrist 28.4092
rhand -24.5971 -26.5227
rfingers 7.12502
rthumb 1.90071 -56.494
lclavicle 4.42296e-015 9.54166e-015
lhumerus -29.1834 -0.89922 85.2364
lradius 26.6704
lwrist 21.9826
lhand -27.2505 -9.56252
lfingers 7.12502
lthumb -0.662053 20.4162
rfemur -26.6084 -1.36361 22.4796
rtibia 26.3568
rfoot -14.762 -0.907196
rtoes 9.05042
lfemur -26.548 7.33632 -17.99
ltibia 28.7603
lfoot -13.0589 6.482
ltoes -8.94888
413
root 0.58351 17.6109 11.2207 16.7668 -0.143803 -3.53148
lowerback 8.46204 0.971945 -1.02418
upperback 6.2319 1.21072 1.39073
thorax 1.65936 0.543722 1.92671
lowerneck -14.262 0.784497 0.47444
upperneck 11.2434 1.19949 -1.67544
head 5.74747 0.473706 -0.498871
rclavicle -1.19271e-014 8.44835e-016
rhumerus -28.0257 -12.8977 -79.0534
rradius 28.2411
rwrist 28.3041
rhand -24.5508 -26.5341
rfingers 7.12502
rthumb 1.94539 -56.505
lclavicle -1.19271e-014 8.44835e-016
lhumerus -29.0616 -0.963138 85.3814
lradius 26.7586
lwrist 21.9184
lhand -27.2281 -9.56558
lfingers 7.12502
lthumb -0.640355 20.4132
rfemur -26.571 -1.37439 22.5128
rtibia 26.4125
rfoot -14.7991 -0.862808
rtoes 9.04499
lfemur -26.452 7.35596 -17.9556
ltibia 28.7349
lfoot -13.1146 6.54917
ltoes -8.9109
414
root 0.581496 17.6081 11.2209 16.7076 -0.181025 -3.53791
lowerback 8.4181 0.98021 -1.01815
upperback 6.2193 1.22232 1.38372
thorax 1.6701 0.549834 1.91583
lowerneck -14.2956 0.804191 0.45636
upperneck 11.2617 1.2308 -1.68107
head 5.75912 0.48741 -0.494792
rclavicle 1.25234e-014 -9.14409e-015
rhumerus -27.8309 -12.7589 -79.1987
rradius 28.3261
rwrist 28.1929
rhand -24.5161 -26.5334
rfingers 7.12502
rthumb 1.97889 -56.5039
lclavicle 1.25234e-014 -9.14409e-015
lhumerus -28.9391 -1.01834 85.5276
lradius 26.8478
lwrist 21.8395
lhand -27.2091 -9.564
lfingers 7.12502
lthumb -0.622061 20.4148
rfemur -26.5433 -1.38143 22.5248
rtibia 26.4806
rfoot -14.8348 -0.824228
rtoes 9.05008
lfemur -26.3505 7.34923 -17.9357
ltibia 28.6982
lfoot -13.1576 6.62541
ltoes -8.84511
415
root 0.579371 17.6056 11.2207 16.6478 -0.218669 -3.53206
lowerback 8.37452 0.988468 -1.02673
upperback 6.21043 1.23302 1.37288
thorax 1.68439 0.555064 1.9093
lowerneck -14.3317 0.822596 0.440223
upperneck 11.2793 1.25918 -1.68107
head 5.77093 0.500195 -0.489497
rclavicle 4.72114e-015 9.64106e-015
rhumerus -27.6435 -12.6299 -79.3459
rradius 28.4305
rwrist 28.0643
rhand -24.485 -26.5331
rfingers 7.12502
rthumb 2.00897 -56.5034
lclavicle 4.72114e-015 9.64106e-015
lhumerus -28.8084 -1.08075 85.6765
lradius 26.9294
lwrist 21.7598
lhand -27.2028 -9.57731
lfingers 7.12502
lthumb -0.61592 20.4015
rfemur -26.5208 -1.3807 22.5217
rtibia 26.5569
rfoot -14.8678 -0.795744
rtoes 9.05572
lfemur -26.2427 7.32327 -17.925
ltibia 28.6498
lfoot -13.1879 6.70867
ltoes -8.77601
416
root 0.577185 17.6036 11.2203 16.5862 -0.250959 -3.52271
lowerback 8.32907 0.995083 -1.03741
upperback 6.20727 1.24144 1.36057
thorax 1.70575 0.559022 1.9027
lowerneck -14.3636 0.839751 0.421316
upperneck 11.2867 1.28486 -1.67111
head 5.77869 0.512406 -0.480847
rclavicle -5.81445e-015 2.98177e-016
rhumerus -27.459 -12.5182 -79.4933
rradius 28.5476
rwrist 27.9235
rhand -24.4737 -26.5255
rfingers 7.12502
rthumb 2.01982 -56.4957
lclavicle -5.81445e-015 2.98177e-016
lhumerus -28.6699 -1.14341 85.8259
lradius 27.0101
lwrist 21.6695
lhand -27.2056 -9.58353
lfingers 7.12502
lthumb -0.618698 20.3953
rfemur -26.4979 -1.37595 22.5149
rtibia 26.6358
rfoot -14.9006 -0.778912
rtoes 9.05526
lfemur -26.1284 7.28558 -17.9154
ltibia 28.5901
lfoot -13.211 6.79327
ltoes -8.71947
417
root 0.574895 17.6018 11.2199 16.5214 -0.278074 -3.50684
lowerback 8.2842 1.00076 -1.05413
upperback 6.20728 1.24829 1.34718
thorax 1.73008 0.561982 1.89855
lowerneck -14.3888 0.855573 0.403714
upperneck 11.2889 1.30815 -1.65935
head 5.78367 0.523715 -0.472076
rclavicle -1.27222e-014 3.97569e-015
rhumerus -27.2774 -12.4258 -79.6369
rradius 28.6653
rwrist 27.7698
rhand -24.4696 -26.5268
rfingers 7.12502
rthumb 2.02381 -56.4969
lclavicle -1.27222e-014 3.97569e-015
lhumerus -28.5312 -1.2072 85.9775
lradius 27.0947
lwrist 21.5711
lhand -27.2173 -9.5808
lfingers 7.12502
lthumb -0.629923 20.398
rfemur -26.4695 -1.36941 22.5014
rtibia 26.7125
rfoot -14.9321 -0.775105
rtoes 9.03512
lfemur -26.0059 7.24193 -17.9112
ltibia 28.5183
lfoot -13.2286 6.87518
ltoes -8.67715
